<?xml version="1.0" encoding="utf-8"?>
<!-- Generator: Adobe Illustrator 24.1.2, SVG Export Plug-In . SVG Version: 6.00 Build 0)  -->
<svg version="1.1" id="Layer_1" xmlns="http://www.w3.org/2000/svg" xmlns:xlink="http://www.w3.org/1999/xlink" x="0px" y="0px"
	 viewBox="0 0 121.9 121.9" style="enable-background:new 0 0 121.9 121.9;" xml:space="preserve">
<style type="text/css">
	.st0{fill:#FFFFFF;}
</style>
<g>
	<path class="st0" d="M57.5,72.3v7.1H47.2l-7-11.9h-4.5v4.8h3.9v7.1H22.9v-7.1h3.9V49.7h-3.9v-7.1h21.6c7.5,0,12.8,5.2,12.8,12.5
		c0,5.5-3.1,9.9-8,11.7l3.5,5.6L57.5,72.3L57.5,72.3z M35.7,59.9h7.8c2.7,0,4.6-2,4.6-4.7s-1.9-4.6-4.6-4.6h-7.9v9.3H35.7z"/>
	<path class="st0" d="M99.1,72.3v7.1H88V66.5c0-1.3-0.9-2.2-2.2-2.2s-2.2,0.9-2.2,2.2v5.8h3v7.1H75.5V66.5c0-1.3-0.9-2.2-2.2-2.2
		s-2.2,0.9-2.2,2.2v5.8h3v7.1h-14v-7.1h3v-7.2h-3v-6.8h11.1v3.1c1.1-2.2,3.2-3.5,5.7-3.5c2.6,0,4.7,1.4,5.8,3.6
		c1.2-2.2,3.5-3.6,6.2-3.6c4.1,0,7.1,3.1,7.1,7.5v7L99.1,72.3L99.1,72.3z"/>
</g>
<g>
	<polygon class="st0" points="0,0 0,121.9 36.1,121.9 36.1,114.3 7.6,114.3 7.6,7.6 114.3,7.6 114.3,114.3 85.8,114.3 85.8,121.9 
		121.9,121.9 121.9,0 	"/>
	<g>
		<g>
			<path class="st0" d="M45.8,116h-0.7v-0.9h-3.5v2.5H45v0.8h-3.4v2.6h3.5v-0.9h0.7v1.7h-5.9v-0.7h0.9V115h-0.9v-0.7h5.9V116z"/>
			<path class="st0" d="M50.7,120.4c0,0.9-0.8,1.5-1.9,1.5c-0.7,0-1.2-0.2-1.6-0.6v0.5h-0.7v-1.5h0.8c0,0.6,0.6,1,1.3,1
				c0.7,0,1.2-0.4,1.2-0.9c0-0.7-0.6-0.8-1.3-0.9c-0.8-0.1-2-0.4-2-1.6c0-0.9,0.7-1.5,1.8-1.5c0.6,0,1.1,0.2,1.4,0.6v-0.5h0.7v1.5
				h-0.8c0-0.6-0.5-0.9-1.2-0.9s-1.1,0.3-1.1,0.8c0,0.7,0.6,0.8,1.3,0.9C49.5,119,50.7,119.2,50.7,120.4z"/>
			<path class="st0" d="M53.1,117.3v3.3c0,0.4,0.3,0.7,0.7,0.7c0.1,0,0.3,0,0.4-0.1v0.7c-0.1,0-0.4,0-0.5,0c-0.9,0-1.4-0.5-1.4-1.3
				v-3.3h-1v-0.8h1v-1.4h0.8v1.4h1.1v0.7h-1.1V117.3z"/>
			<path class="st0" d="M56.3,121.4c0,0.3-0.3,0.6-0.6,0.6c-0.4,0-0.6-0.3-0.6-0.6c0-0.4,0.3-0.6,0.6-0.6
				C56.1,120.8,56.3,121,56.3,121.4z"/>
			<path class="st0" d="M64.4,121.2v0.7h-4.3v-0.7h1.8v-4.9h-1.7v-0.6c1.1,0,1.8-0.6,1.8-1.4h0.7v6.8L64.4,121.2L64.4,121.2z"/>
			<path class="st0" d="M70.2,116.9c0,0.6-0.2,1.1-0.5,1.6l-2.3,3.4h-1l1.9-2.7c-0.3,0.2-0.7,0.3-1.2,0.3c-1.4,0-2.6-1.1-2.6-2.5
				c0-1.5,1.2-2.6,2.8-2.6C69.1,114.3,70.2,115.4,70.2,116.9z M69.4,116.9c0-1.1-0.8-1.9-2-1.9c-1.1,0-1.9,0.8-1.9,1.9
				c0,1.1,0.8,1.9,1.9,1.9C68.6,118.8,69.4,118,69.4,116.9z"/>
			<path class="st0" d="M76.2,114.4v0.6l-3.4,6.9h-0.9l3.4-6.8h-4.4v-0.7H76.2z"/>
			<path class="st0" d="M82,121.2v0.7h-5.2v-0.1c0-1.7,1.3-2.5,2.4-3.1c1-0.6,1.9-1.2,1.9-2.2c0-0.9-0.7-1.5-1.6-1.5
				s-1.6,0.6-1.7,1.6H77c0.1-1.4,1.1-2.3,2.5-2.3s2.4,0.9,2.4,2.1c0,1.3-1.1,2-2.1,2.7c-1,0.6-2,1.1-2,2.1H82z"/>
		</g>
	</g>
</g>
</svg>
