<?xml version="1.0" encoding="UTF-8"?>
<svg width="18px" height="25px" viewBox="0 0 18 25" version="1.1" xmlns="http://www.w3.org/2000/svg" xmlns:xlink="http://www.w3.org/1999/xlink">
    <title>Path</title>
    <g id="Symbols" stroke="none" stroke-width="1" fill="none" fill-rule="evenodd">
        <g id="Mobile-Navigation" transform="translate(0.000000, -16.000000)" fill="#FFFFFF" fill-rule="nonzero">
            <g id="Nav">
                <g id="np_phone_1778831_000000" transform="translate(-0.000000, 16.000000)">
                    <path d="M3.44844714,0.27386729 C4.39759904,-0.178351896 4.80031067,0.0125107526 5.8014523,0.254346824 C6.13583606,0.411594948 6.3927572,0.640408583 6.45596962,0.985271173 C6.82911078,3.01646796 6.88618987,4.81229645 6.8036118,6.67653111 C6.75569616,7.78268995 5.23867389,8.36394804 4.44243758,9.07968644 C4.5861871,12.2831717 7.07376527,16.8900384 9.60930867,18.5979717 C10.5890489,18.2227372 11.8206209,17.1166061 12.7464401,17.6241277 C14.3042529,18.47976 15.7376766,19.4297562 17.2057602,20.7906892 C17.4545175,21.0205939 17.5126353,21.3708646 17.4738779,21.7580368 C17.1690385,22.8012864 17.0956474,23.2274924 16.2810633,23.9161071 C8.41657235,30.5671078 -5.66267508,4.61163096 3.44962161,0.274890884 L3.44844714,0.27386729 Z" id="Path"></path>
                </g>
            </g>
        </g>
    </g>
</svg>