<?xml version="1.0" encoding="UTF-8"?>
<svg width="17px" height="17px" viewBox="0 0 17 17" version="1.1" xmlns="http://www.w3.org/2000/svg" xmlns:xlink="http://www.w3.org/1999/xlink">
    <title>linkedin</title>
    <defs>
        <path d="M0,1.98115385 C0,3.08223077 0.791153846,3.96361538 2.01384615,3.96361538 L2.01384615,3.96361538 L2.03738462,3.96361538 C3.30976923,3.96361538 4.09961538,3.08223077 4.09961538,1.98115385 L4.09961538,1.98115385 C4.07607692,0.855230769 3.30976923,0 2.06223077,0 L2.06223077,0 C0.814692308,0 0,0.855230769 0,1.98115385 L0,1.98115385 Z M9.52,7.15438462 L9.52,7.19230769 L9.49646154,7.19230769 C9.503,7.18053846 9.51215385,7.16746154 9.52,7.15438462 L9.52,7.15438462 L9.52,5.52892308 L5.87546154,5.52892308 C5.92384615,6.60515385 5.87546154,17 5.87546154,17 L5.87546154,17 L9.52,17 L9.52,10.5936154 C9.52,10.2496923 9.54353846,9.90838462 9.64030769,9.66384615 L9.64030769,9.66384615 C9.90446154,8.97730769 10.5020769,8.26984615 11.509,8.26984615 L11.509,8.26984615 C12.8284615,8.26984615 13.3554615,9.32123077 13.3554615,10.8616923 L13.3554615,10.8616923 L13.3554615,17 L17,17 L17,10.4223077 C17,6.89938462 15.2019231,5.25953846 12.8049231,5.25953846 L12.8049231,5.25953846 C10.8682308,5.25953846 10.0038462,6.375 9.52,7.15438462 L9.52,7.15438462 Z M0.217076923,17 L3.86030769,17 L3.86030769,5.53023077 L0.217076923,5.53023077 L0.217076923,17 Z" id="path-1"></path>
    </defs>
    <g id="Symbols" stroke="none" stroke-width="1" fill="none" fill-rule="evenodd">
        <g id="FOOTER" transform="translate(-712.000000, -260.000000)">
            <g id="linkedin" transform="translate(712.000000, 260.000000)">
                <mask id="mask-2" fill="white">
                    <use xlink:href="#path-1"></use>
                </mask>
                <g id="Clip-2"></g>
                <polygon id="Fill-1" fill="#A1ACAE" mask="url(#mask-2)" points="-6 24 24 24 24 -6 -6 -6"></polygon>
            </g>
        </g>
    </g>
</svg>