<?xml version="1.0" encoding="utf-8"?>
<!-- Generator: Adobe Illustrator 24.1.2, SVG Export Plug-In . SVG Version: 6.00 Build 0)  -->
<svg version="1.1" id="Layer_1" xmlns="http://www.w3.org/2000/svg" xmlns:xlink="http://www.w3.org/1999/xlink" x="0px" y="0px"
	 viewBox="0 0 121.9 85.6" style="enable-background:new 0 0 121.9 85.6;" xml:space="preserve">
<style type="text/css">
	.st0{fill:#FFFFFF;}
</style>
<g>
	<g>
		<g>
			<g>
				<path class="st0" d="M59.5,29.4v3.1H55l-3.2-5.2h-2v2.1h1.7v3.1h-7.4v-3.1h1.7v-10h-1.7v-3.1h9.6c3.3,0,5.6,2.3,5.6,5.5
					c0,2.4-1.4,4.4-3.5,5.2l1.6,2.5L59.5,29.4L59.5,29.4z M49.8,24h3.5c1.2,0,2-0.9,2-2.1c0-1.2-0.8-2.1-2-2.1h-3.5V24z"/>
				<path class="st0" d="M77.9,29.4v3.1H73v-5.7c0-0.6-0.4-1-1-1s-1,0.4-1,1v2.6h1.3v3.1h-4.9v-5.7c0-0.6-0.4-1-1-1s-1,0.4-1,1v2.6
					h1.3v3.1h-6.2v-3.1h1.3v-3.2h-1.3v-3h4.9v1.4c0.5-1,1.4-1.5,2.5-1.5s2.1,0.6,2.6,1.6c0.5-1,1.5-1.6,2.7-1.6
					c1.8,0,3.1,1.4,3.1,3.3v3.1L77.9,29.4L77.9,29.4z"/>
			</g>
			<g>
				<polygon class="st0" points="36.6,0 36.6,48.9 51,48.9 51,45.8 39.6,45.8 39.6,3 82.4,3 82.4,45.8 71,45.8 71,48.9 85.5,48.9 
					85.5,0 				"/>
			</g>
		</g>
		<g>
			<g>
				<path class="st0" d="M10.5,70.6H12v2.8H8.2l-2-3.6H4.9v0.8h1.2v2.8H0v-2.8h1.2V64H0v-2.8h7.5c2.6,0,4.5,1.8,4.5,4.3
					c0,1.7-0.9,3.1-2.3,3.8L10.5,70.6z M4.9,66.8h2.2c0.7,0,1.2-0.5,1.2-1.3c0-0.7-0.5-1.2-1.2-1.2H4.9V66.8z"/>
				<path class="st0" d="M25.9,67.3c0,3.7-2.7,6.3-6.5,6.3s-6.5-2.6-6.5-6.3c0-3.7,2.7-6.3,6.5-6.3S25.9,63.7,25.9,67.3z M16.5,67.3
					c0,1.8,1.2,3.1,2.8,3.1s2.8-1.3,2.8-3.1c0-1.8-1.2-3-2.8-3C17.7,64.3,16.5,65.6,16.5,67.3z"/>
				<path class="st0" d="M30.5,67.3c0,1.8,1.2,3.1,2.8,3.1c1.4,0,2.4-0.9,2.7-2.1h3.7c-0.4,3.1-3,5.3-6.4,5.3
					c-3.8,0-6.5-2.6-6.5-6.3c0-3.8,2.9-6.3,6.2-6.3c1.3,0,2.8,0.5,3.8,1.5v-1.4h2.8v5.2h-3.7c-0.3-1.2-1.3-2.1-2.7-2.1
					C31.6,64.3,30.5,65.6,30.5,67.3z"/>
				<path class="st0" d="M48.9,67.1l2.3,3.5h1.2v2.8h-3.6l-3.5-5.7v3h1.2v2.8h-6.1v-2.8h1.2v-6.6h-1.2v-2.8h4.8v5.4l1.7-2.6h-1.1
					v-2.8h6.6v2.8H51L48.9,67.1z"/>
				<path class="st0" d="M68.9,64v6.6h1.2v2.8H64v-2.8h1.2V65l-2.3,8.4h-2.6L58,65v5.6h1.2v2.8h-6.1v-2.8h1.2V64h-1.2v-2.8h6.7
					l1.9,7.1l1.9-7.1h6.5V64H68.9z"/>
				<path class="st0" d="M83.5,67.3c0,3.7-2.7,6.3-6.5,6.3s-6.5-2.6-6.5-6.3c0-3.7,2.7-6.3,6.5-6.3S83.5,63.7,83.5,67.3z M74.1,67.3
					c0,1.8,1.2,3.1,2.8,3.1s2.8-1.3,2.8-3.1c0-1.8-1.2-3-2.8-3S74.1,65.6,74.1,67.3z"/>
				<path class="st0" d="M96.3,64h-1.2v5.1c0,2.6-2.1,4.6-5.1,4.6s-5.1-1.9-5.1-4.6V64h-1.2v-2.8h6.1V64h-1.2v4.9
					c0,0.9,0.6,1.5,1.5,1.5s1.5-0.6,1.5-1.5V64h-1.2v-2.8h6.1V64H96.3z"/>
				<path class="st0" d="M110.6,64h-1.2v9.5h-4.5l-3-7.2v4.4h1.2v2.8H97v-2.8h1.2v-6.6H97v-2.8h5.8l3,7.2v-4.4h-1.2v-2.8h6.1V64
					H110.6z"/>
				<path class="st0" d="M121.9,61.2v4.4h-2.8v-1.2h-0.7v6.3h1.2v2.8h-6.1v-2.8h1.2v-6.3H114v1.2h-2.8v-4.4H121.9z"/>
			</g>
		</g>
	</g>
	<g>
		<path class="st0" d="M54.6,46.6h-0.4v-0.3H53v0.9h1.3v0.4H53v0.9h1.2v-0.3h0.4V49h-2.4v-0.4h0.3v-2.3h-0.3v-0.4h2.4V46.6z"/>
		<path class="st0" d="M56.7,48.3c0,0.4-0.3,0.6-0.8,0.6c-0.3,0-0.5-0.1-0.6-0.2v0.2h-0.4v-0.6h0.4c0,0.2,0.2,0.3,0.5,0.3
			c0.2,0,0.4-0.1,0.4-0.3S56,48,55.7,48s-0.8-0.1-0.8-0.7c0-0.4,0.3-0.6,0.7-0.6c0.2,0,0.4,0.1,0.6,0.2v-0.2h0.4v0.6h-0.4
			c0-0.2-0.2-0.3-0.4-0.3c-0.2,0-0.4,0.1-0.4,0.3s0.2,0.3,0.4,0.3C56.2,47.7,56.7,47.7,56.7,48.3z"/>
		<path class="st0" d="M57.8,47.1v1.2c0,0.1,0.1,0.2,0.3,0.2c0,0,0.1,0,0.2,0v0.4c-0.1,0-0.2,0-0.2,0c-0.4,0-0.6-0.2-0.6-0.6v-1.2
			h-0.4v-0.4h0.4v-0.6h0.3v0.6h0.4v0.4H57.8z"/>
		<path class="st0" d="M59.3,48.6c0,0.2-0.1,0.3-0.3,0.3c-0.2,0-0.3-0.1-0.3-0.3s0.1-0.3,0.3-0.3C59.2,48.3,59.3,48.4,59.3,48.6z"/>
		<path class="st0" d="M62.6,48.5v0.4h-1.8v-0.4h0.7v-1.8h-0.7v-0.3c0.4,0,0.7-0.2,0.7-0.6h0.4v2.6L62.6,48.5L62.6,48.5z"/>
		<path class="st0" d="M64.9,46.9c0,0.2-0.1,0.4-0.2,0.6l-0.9,1.4h-0.5l0.8-1c-0.1,0-0.2,0.1-0.4,0.1c-0.5,0-1-0.4-1-1
			s0.5-1.1,1.1-1.1S64.9,46.3,64.9,46.9z M64.5,46.9c0-0.4-0.3-0.7-0.7-0.7s-0.7,0.3-0.7,0.7s0.3,0.7,0.7,0.7
			C64.2,47.6,64.5,47.3,64.5,46.9z"/>
		<path class="st0" d="M67.3,45.9v0.3L66,48.9h-0.5l1.3-2.6h-1.7v-0.4H67.3z"/>
		<path class="st0" d="M69.7,48.5v0.4h-2.1l0,0c0-0.7,0.5-1,0.9-1.3c0.4-0.2,0.7-0.5,0.7-0.9c0-0.3-0.2-0.5-0.6-0.5
			c-0.3,0-0.6,0.2-0.6,0.6h-0.4c0-0.6,0.5-0.9,1-0.9s1,0.4,1,0.9s-0.4,0.8-0.9,1.1c-0.4,0.2-0.7,0.4-0.7,0.7L69.7,48.5L69.7,48.5z"
			/>
	</g>
</g>
<g>
	<path class="st0" d="M11.6,83v0.7h-1.4l-1.4-2.3h-1v1.5h0.7v0.8H6.1v-0.8h0.7v-4.6H6.1v-0.8h3.4c1.2,0,2,0.8,2,1.9
		s-0.7,1.8-1.7,1.9l1,1.6h0.8V83z M7.8,80.6h1.6c0.6,0,1.1-0.4,1.1-1.1c0-0.6-0.4-1.1-1.1-1.1H7.8V80.6z"/>
	<path class="st0" d="M16.7,81.9H13c0.1,0.7,0.7,1.2,1.4,1.2c0.6,0,1.1-0.4,1.3-0.9h0.9c-0.2,1-1.2,1.7-2.2,1.7
		c-1.3,0-2.3-0.9-2.3-2.3c0-1.3,1-2.3,2.3-2.3s2.3,0.9,2.3,2.3C16.8,81.7,16.7,81.8,16.7,81.9z M13,81.2h2.8
		c-0.1-0.6-0.7-1.1-1.4-1.1C13.7,80.1,13.2,80.5,13,81.2z"/>
	<path class="st0" d="M21,82.5c0,0.8-0.6,1.3-1.6,1.3c-0.5,0-0.9-0.1-1.2-0.4v0.3h-0.8v-1.3h0.9c0,0.4,0.4,0.7,0.9,0.7
		s0.9-0.2,0.9-0.6c0-0.5-0.4-0.5-0.9-0.6c-0.7-0.1-1.7-0.3-1.7-1.4c0-0.7,0.6-1.3,1.5-1.3c0.5,0,0.9,0.2,1.1,0.4v-0.4h0.8v1.2h-0.8
		c0-0.4-0.4-0.7-0.9-0.7s-0.8,0.2-0.8,0.6c0,0.5,0.4,0.5,0.9,0.6C19.9,81.3,21,81.5,21,82.5z"/>
	<path class="st0" d="M26.3,81.9h-3.7c0.1,0.7,0.7,1.2,1.4,1.2c0.6,0,1.1-0.4,1.3-0.9h0.9c-0.2,1-1.2,1.7-2.2,1.7
		c-1.3,0-2.3-0.9-2.3-2.3c0-1.3,1-2.3,2.3-2.3s2.3,0.9,2.3,2.3C26.4,81.7,26.4,81.8,26.3,81.9z M22.7,81.2h2.8
		c-0.1-0.6-0.7-1.1-1.4-1.1C23.3,80.1,22.8,80.5,22.7,81.2z"/>
	<path class="st0" d="M31.7,80.2V83h0.7v0.7h-1.6v-0.6c-0.4,0.4-0.9,0.7-1.6,0.7c-1.2,0-2.1-0.9-2.1-2.3c0-1.3,0.9-2.3,2.1-2.3
		c0.6,0,1.2,0.3,1.6,0.7v-0.6h1.6v0.8h-0.7V80.2z M30.8,81.6c0-0.8-0.6-1.5-1.4-1.5c-0.8,0-1.4,0.6-1.4,1.5s0.6,1.5,1.4,1.5
		C30.2,83,30.8,82.4,30.8,81.6z"/>
	<path class="st0" d="M34.7,81.6V83h0.7v0.7h-2.3v-0.8h0.7v-2.8h-0.7v-0.8h1.6v1c0.3-0.7,0.9-1.1,1.6-1.1v0.9
		C35.3,80.2,34.7,80.7,34.7,81.6z"/>
	<path class="st0" d="M37.7,81.6c0,0.9,0.6,1.5,1.4,1.5c0.7,0,1.2-0.5,1.4-1.1h0.9c-0.1,1.1-1.1,1.9-2.3,1.9c-1.3,0-2.3-0.9-2.3-2.3
		c0-1.3,0.9-2.3,2.2-2.3c0.7,0,1.3,0.3,1.6,0.8v-0.7h0.8v1.8h-0.9c-0.1-0.6-0.7-1.1-1.3-1.1C38.3,80.1,37.7,80.7,37.7,81.6z"/>
	<path class="st0" d="M47.3,83v0.7H45v-0.8h0.7v-1.8c0-0.7-0.4-1.2-1.1-1.2s-1.1,0.5-1.1,1.2v1.8h0.7v0.8h-2.3v-0.8h0.7v-4.6h-0.7
		v-0.8h1.6v2.4c0.3-0.5,0.8-0.7,1.4-0.7c1,0,1.7,0.7,1.7,1.8v1.9L47.3,83L47.3,83z"/>
	<path class="st0" d="M54.3,80.2V83H55v0.7h-1.6v-0.6c-0.4,0.4-0.9,0.7-1.6,0.7c-1.2,0-2.1-0.9-2.1-2.3c0-1.3,0.9-2.3,2.1-2.3
		c0.6,0,1.2,0.3,1.6,0.7v-0.6H55v0.8h-0.7V80.2z M53.4,81.6c0-0.8-0.6-1.5-1.4-1.5c-0.8,0-1.4,0.6-1.4,1.5s0.6,1.5,1.4,1.5
		C52.9,83,53.4,82.4,53.4,81.6z"/>
	<path class="st0" d="M61.1,83v0.7h-2.3v-0.8h0.7v-1.8c0-0.7-0.4-1.2-1.1-1.2s-1.1,0.5-1.1,1.2v1.8H58v0.8h-2.3v-0.8h0.7v-2.8h-0.7
		v-0.8h1.6V80c0.3-0.5,0.8-0.7,1.4-0.7c1,0,1.7,0.7,1.7,1.8V83C60.4,83,61.1,83,61.1,83z"/>
	<path class="st0" d="M66.9,83v0.7h-1.6v-0.6c-0.4,0.4-0.9,0.7-1.6,0.7c-1.2,0-2.1-0.9-2.1-2.3c0-1.3,0.9-2.3,2.1-2.3
		c0.6,0,1.2,0.3,1.6,0.7v-1.6h-0.7v-0.8h1.6v5.3h0.7V83z M65.3,81.6c0-0.8-0.6-1.5-1.4-1.5s-1.4,0.6-1.4,1.5s0.6,1.5,1.4,1.5
		C64.7,83,65.3,82.4,65.3,81.6z"/>
	<path class="st0" d="M76,83v0.7h-2.4v-0.8h0.7l-0.4-1h-2.5l-0.4,1h0.7v0.8h-2.4v-0.8H70l1.8-4.6h-0.7v-0.8h2.2l2.1,5.3H76V83z
		 M73.6,81.1l-1-2.6l-1,2.6H73.6z"/>
	<path class="st0" d="M78.9,83v0.7h-2.3v-0.8h0.7v-4.6h-0.7v-0.8h1.6v5.3h0.7V83z"/>
	<path class="st0" d="M81.9,83v0.7h-2.3v-0.8h0.7v-4.6h-0.7v-0.8h1.6v5.3h0.7V83z"/>
	<path class="st0" d="M87,81.6c0,1.3-1,2.3-2.3,2.3s-2.3-0.9-2.3-2.3c0-1.3,1-2.3,2.3-2.3S87,80.3,87,81.6z M83.3,81.6
		c0,0.9,0.6,1.5,1.4,1.5s1.4-0.6,1.4-1.5c0-0.8-0.6-1.5-1.4-1.5S83.3,80.7,83.3,81.6z"/>
	<path class="st0" d="M92.7,80.2H92l-2.1,4.4c-0.3,0.6-0.9,1-1.7,1h-0.4v-0.7h0.5c0.4,0,0.7-0.2,0.9-0.5l0.5-1.1l-1.5-3.1h-0.7v-0.8
		h2.3v0.8h-0.6l1,2.2l1-2.2h-0.6v-0.8h2.3v0.8H92.7z"/>
	<path class="st0" d="M96.9,82.5c0,0.8-0.6,1.3-1.6,1.3c-0.5,0-0.9-0.1-1.2-0.4v0.3h-0.8v-1.3h0.9c0,0.4,0.4,0.7,0.9,0.7
		s0.9-0.2,0.9-0.6c0-0.5-0.4-0.5-0.9-0.6c-0.7-0.1-1.7-0.3-1.7-1.4c0-0.7,0.6-1.3,1.5-1.3c0.5,0,0.9,0.2,1.1,0.4v-0.4h0.8v1.2H96
		c0-0.4-0.4-0.7-0.9-0.7s-0.8,0.2-0.8,0.6c0,0.5,0.4,0.5,0.9,0.6C95.8,81.3,96.9,81.5,96.9,82.5z"/>
	<path class="st0" d="M98.9,82.8l-0.7,2.1h-0.7l0.5-2.1H98.9z"/>
	<path class="st0" d="M103.3,78.4V83h0.7v0.7h-2.4v-0.8h0.7v-4.6h-0.7v-0.8h2.4v0.8L103.3,78.4L103.3,78.4z"/>
	<path class="st0" d="M110.1,83v0.7h-2.3v-0.8h0.7v-1.8c0-0.7-0.4-1.2-1.1-1.2s-1.1,0.5-1.1,1.2v1.8h0.7v0.8h-2.3v-0.8h0.7v-2.8
		h-0.7v-0.8h1.6V80c0.3-0.5,0.8-0.7,1.4-0.7c1,0,1.7,0.7,1.7,1.8V83C109.4,83,110.1,83,110.1,83z"/>
	<path class="st0" d="M111.4,81.6c0,0.9,0.6,1.5,1.4,1.5c0.7,0,1.2-0.5,1.4-1.1h0.9c-0.1,1.1-1.1,1.9-2.3,1.9
		c-1.3,0-2.3-0.9-2.3-2.3c0-1.3,0.9-2.3,2.2-2.3c0.7,0,1.3,0.3,1.6,0.8v-0.7h0.8v1.8h-0.9c-0.1-0.6-0.7-1.1-1.3-1.1
		C112,80.1,111.4,80.7,111.4,81.6z"/>
	<path class="st0" d="M117.2,83.2c0,0.4-0.3,0.6-0.6,0.6c-0.4,0-0.6-0.2-0.6-0.6s0.3-0.6,0.6-0.6C116.9,82.6,117.2,82.8,117.2,83.2z
		"/>
</g>
</svg>
