<?xml version="1.0" encoding="UTF-8"?>
<svg width="40px" height="50px" viewBox="0 0 40 50" version="1.1" xmlns="http://www.w3.org/2000/svg" xmlns:xlink="http://www.w3.org/1999/xlink">
    <title>np_pdf_749513_000000</title>
    <g id="Symbols" stroke="none" stroke-width="1" fill="none" fill-rule="evenodd">
        <g id="Product" transform="translate(-1140.000000, 0.000000)" fill="#00833A" fill-rule="nonzero">
            <g id="Group-3" transform="translate(0.000000, -3.000000)">
                <g id="np_pdf_749513_000000" transform="translate(1140.000000, 3.000000)">
                    <path d="M36.7152949,4.88636155 C36.7873068,4.95812944 36.8908254,5 36.9988433,5 C37.1091138,5 37.2103798,4.95813403 37.2823918,4.88636155 L39.9040872,2.5438763 C40.0031065,2.44419641 40.0278556,2.30264595 39.9671006,2.18303109 C39.9040872,2.06341113 39.7690677,1.98566173 39.6205445,1.98566173 L38.6798958,1.98566173 L38.6798958,0.334928742 C38.6798958,0.149522398 38.5111171,0 38.3018331,0 L35.6959227,0 C35.4866387,0 35.31786,0.149522398 35.31786,0.334928742 L35.31786,1.98566173 L34.379458,1.98566173 C34.2309348,1.98566173 34.0936628,2.06341113 34.032902,2.18303109 C33.9721412,2.30464149 33.996896,2.44419641 34.0959153,2.5438763 L36.7152949,4.88636155 Z" id="Path"></path>
                    <path d="M24.7074405,22.6832968 C23.675384,21.5326955 22.6582919,20.2471617 21.7418402,19.0922821 C21.3093171,18.5459207 20.896045,18.0252732 20.508503,17.5517479 L20.4806674,17.5174663 C21.0481122,15.9019512 21.3714109,14.5799418 21.4442052,13.5879137 C21.6283507,11.0596296 21.3457082,9.42914036 20.5813078,8.60852038 C20.065274,8.05359675 19.2901408,7.85860283 18.562143,8.10500823 C18.0396904,8.28070022 17.3330814,8.74994171 16.9305202,9.98835879 C16.3288161,11.8352886 16.6200426,15.1048786 18.3308786,17.8089588 C17.5664836,19.8101285 16.5023055,22.109137 15.3267433,24.2988831 C13.0870579,25.0852214 11.3034331,26.1179487 10.0208173,27.3692557 C8.34638394,29.0040782 7.66760999,30.6260107 8.15370927,31.8194503 C8.45348146,32.558672 9.14723087,33 10.0079906,33 C10.6075569,33 11.2562922,32.7835979 11.8837045,32.3743739 C13.4681865,31.3373683 15.5366299,27.8834802 16.6478941,25.8822557 C18.9432716,25.1644806 21.210803,24.8709201 22.3629044,24.7595185 C22.8832192,24.7080961 23.4013743,24.6695306 23.9003002,24.6416775 C25.9173272,26.7735561 27.5660523,27.8962933 29.0862911,28.1769639 C29.3924821,28.2348148 29.6986841,28.262668 29.9963295,28.262668 C31.2339422,28.262668 32.2574476,27.767729 32.7349409,26.9406585 C33.0946643,26.3150325 33.08824,25.5865067 32.7156702,24.9394889 C31.8720128,23.4782137 29.3282686,22.674762 25.5513517,22.674762 C25.27942,22.6704765 24.9989263,22.674762 24.7076943,22.6833319 L24.7074405,22.6832968 Z M10.8326716,30.7627917 C10.5328994,30.9577692 10.2245542,31.0756102 10.008309,31.0756102 C9.96762591,31.0756102 9.93979032,31.0713247 9.92266063,31.0670398 C9.88411857,30.8763462 10.0211577,30.0471475 11.361554,28.738028 C11.9910493,28.1230978 12.7876206,27.5617567 13.7297258,27.0646456 C12.5391991,28.9779994 11.4707454,30.3471255 10.8326442,30.7627835 L10.8326716,30.7627917 Z M18.7528887,10.5816065 C18.8920694,10.1530861 19.0655041,9.96025883 19.1747065,9.92383802 C19.1768481,9.92383802 19.1789892,9.92169556 19.1811302,9.92169556 C19.2860516,10.0395366 19.7271368,10.7101731 19.5301482,13.4484253 C19.4958888,13.9262234 19.3802621,14.5304633 19.1832735,15.2481835 C18.5430345,13.5983868 18.3653243,11.7642921 18.7528882,10.5816033 L18.7528887,10.5816065 Z M22.1788252,22.8456546 C21.1574576,22.9442156 19.6029595,23.1456161 17.8685586,23.5570121 C18.5409192,22.213611 19.1640011,20.8509024 19.6843049,19.5888996 C19.8641639,19.8138748 20.0483093,20.0474178 20.2367303,20.2852281 C20.8640878,21.0758448 21.56857,21.9671672 22.3008434,22.8349038 L22.1788252,22.8456546 Z M31.0522749,25.8945806 C31.0801105,25.9438606 31.0801105,25.9631439 31.0736868,25.9760008 C30.9923194,26.115272 30.628315,26.3381026 29.9944894,26.3381026 C29.8167682,26.3381026 29.6283417,26.3209618 29.4335128,26.2845377 C28.6412718,26.1388435 27.7184068,25.5903484 26.6178315,24.6132945 C29.6048096,24.7568495 30.8103008,25.4767528 31.0522541,25.8945499 L31.0522749,25.8945806 Z" id="Shape"></path>
                    <path d="M27.8585983,0 L2.78584876,0 C1.25017676,0 0,1.24999444 0,2.79509869 L0,47.2049013 C0,48.7478389 1.24801728,50 2.78584876,50 L36.2141512,50 C37.7541422,50 39,48.7478389 39,47.2049013 L39,11.180617 L27.8585983,0 Z M27.8585983,3.95181577 L35.0635324,11.1806725 L27.8585983,11.1806725 L27.8585983,3.95181577 Z M36.2164768,47.2044013 L2.78584876,47.2044013 L2.78584876,2.79459869 L25.0728603,2.79459869 L25.0728603,11.180117 C25.0728603,12.7230546 26.3187181,13.9752157 27.8587091,13.9752157 L36.2164768,13.9752157 L36.2164768,47.2044013 Z" id="Shape"></path>
                    <path d="M15.2696204,35.5993106 C15.0314316,35.3857636 14.7456119,35.2296183 14.4189791,35.1400682 C14.0968586,35.0482197 13.6386052,35 13.051089,35 L11.1070067,35 C10.7372495,35 10.4582243,35.0849591 10.2767488,35.2571758 C10.0952732,35.4293924 10,35.7095288 10,36.0884266 L10,41.9276976 C10,42.2675341 10.0839317,42.5315757 10.2472597,42.7152726 C10.4128583,42.9035606 10.6351644,43 10.9073662,43 C11.1659674,43 11.383738,42.9035606 11.5561485,42.7152726 C11.724012,42.5292773 11.8079437,42.2606212 11.8079437,41.9184687 L11.8079437,39.9207862 L13.0510367,39.9207862 C14.0105633,39.9207862 14.7478477,39.7095317 15.2423323,39.2893389 C15.7436578,38.8645374 16,38.2376517 16,37.4225074 C16,37.0436332 15.9387513,36.6968897 15.8162538,36.3915119 C15.6914916,36.079227 15.510016,35.8151619 15.2695565,35.599293 L15.2696204,35.5993106 Z M14.0128804,38.0401584 C13.9039951,38.1894144 13.7497379,38.2927432 13.5387733,38.3593326 C13.3141966,38.4305129 13.0283712,38.4672523 12.6858092,38.4672523 L11.8101969,38.4672523 L11.8101969,36.4465857 L12.6858092,36.4465857 C13.4752424,36.4465857 13.7951039,36.6050236 13.9221078,36.7359099 C14.0922418,36.9196069 14.1739029,37.153822 14.1739029,37.4523575 C14.1739029,37.6957545 14.1194603,37.8955286 14.0128456,38.0401878 L14.0128804,38.0401584 Z" id="Shape"></path>
                    <path d="M21.9066654,35.6434243 C21.6236619,35.3942266 21.3040379,35.2226444 20.9558671,35.1327719 C20.6178912,35.0449388 20.2066222,35 19.7363309,35 L17.9630051,35 C17.6352085,35 17.3908687,35.07966 17.2341397,35.2349014 C17.077369,35.3921821 17,35.6372958 17,35.9661379 L17,40.9072135 C17,41.1380309 17.0203602,41.3239095 17.061081,41.4730014 C17.1079085,41.6425391 17.2097104,41.7753058 17.3644431,41.8672281 C17.5110345,41.9571057 17.716669,42 17.9894828,42 L19.7628086,42 C20.07635,42 20.3634033,41.9795741 20.6158793,41.9387202 C20.8724155,41.8978679 21.1167345,41.8243338 21.3386465,41.7222044 C21.5646396,41.6200749 21.77435,41.4791352 21.9636862,41.3095975 C22.2018965,41.0889925 22.4014224,40.8377554 22.5541172,40.5579152 C22.7047793,40.2801196 22.8208327,39.9635241 22.8920931,39.6182993 C22.9633535,39.2771846 23,38.8952202 23,38.4825923 C23,37.2202367 22.6314862,36.2663454 21.9066497,35.6433511 L21.9066654,35.6434243 Z M20.7217378,40.3680154 C20.6341895,40.4456361 20.5283206,40.5069159 20.4061585,40.5498101 C20.2799257,40.5947474 20.1557309,40.6233416 20.0396774,40.6335593 C19.9154826,40.6458147 19.7424239,40.6519427 19.5205015,40.6519427 L18.6205737,40.6519427 L18.6205737,36.3399794 L19.3881653,36.3399794 C19.789255,36.3399794 20.1353775,36.3849167 20.4122463,36.4707068 C20.6728532,36.5503668 20.8968136,36.7423739 21.0779927,37.0447044 C21.2653065,37.3531373 21.3589726,37.8331472 21.3589726,38.4704692 C21.3609946,39.3712853 21.1472151,40.0085549 20.7216701,40.3680552 L20.7217378,40.3680154 Z" id="Shape"></path>
                    <path d="M29.221212,35 L25.9764991,35 C25.7601814,35 25.5850694,35.0367733 25.4408734,35.1102729 C25.2884236,35.1883647 25.1730552,35.3146958 25.1009493,35.4869553 C25.0329624,35.6477371 25,35.8452687 25,36.0887111 L25,41.9181685 C25,42.2695906 25.0762249,42.5383286 25.2266178,42.7197843 C25.3790676,42.9058323 25.5809662,43 25.8219978,43 C26.0589157,43 26.25669,42.9081255 26.4132641,42.7220775 C26.563657,42.5406276 26.6398819,42.2695965 26.6398819,41.9158753 L26.6398819,39.566182 L28.7742102,39.566182 C29.013185,39.566182 29.2006592,39.5018728 29.3304573,39.3755417 C29.464369,39.2423252 29.5323506,39.0654675 29.5323506,38.847262 C29.5323506,38.6290564 29.4664258,38.4499056 29.3345762,38.3189823 C29.2068456,38.188059 29.0173145,38.1214507 28.7742155,38.1214507 L26.6398871,38.1214507 L26.6398871,36.4768829 L29.2191815,36.4768829 C29.4725806,36.4768829 29.666236,36.4102747 29.7981066,36.2747591 C29.9320184,36.1392435 30,35.9577936 30,35.7349958 C30,35.5190893 29.9320131,35.3376394 29.7960445,35.1998248 C29.6662571,35.0666083 29.4726017,35 29.2212858,35 L29.221212,35 Z" id="Path"></path>
                </g>
            </g>
        </g>
    </g>
</svg>