<?xml version="1.0" standalone="no"?>
<!DOCTYPE svg PUBLIC "-//W3C//DTD SVG 20010904//EN"
 "http://www.w3.org/TR/2001/REC-SVG-20010904/DTD/svg10.dtd">
<svg version="1.0" xmlns="http://www.w3.org/2000/svg"
 width="260.000000pt" height="260.000000pt" viewBox="0 0 260.000000 260.000000"
 preserveAspectRatio="xMidYMid meet">
<metadata>
Created by potrace 1.11, written by Peter Selinger 2001-2013
</metadata>
<g transform="translate(0.000000,260.000000) scale(0.100000,-0.100000)"
fill="#000000" stroke="none">
<path d="M4 1803 l1 -118 65 -5 65 -5 0 -382 1 -383 -67 0 -66 0 1 -120 0
-120 283 0 c262 0 283 1 284 18 0 9 1 62 2 117 l0 100 -66 3 -67 3 0 79 c0 84
-1 82 50 82 11 0 39 0 63 -1 l43 -1 118 -200 118 -200 174 0 174 0 1 80 c0 44
1 97 2 118 l0 37 -81 5 -81 5 -56 87 c-30 48 -55 89 -55 92 0 2 24 17 53 34
196 110 266 353 165 569 -46 100 -169 190 -288 213 -30 6 -224 10 -445 10
l-392 0 1 -117z m793 -179 c94 -71 85 -219 -17 -271 -40 -21 -58 -23 -192 -23
l-148 0 0 161 0 160 164 -3 c149 -3 167 -5 193 -24z"/>
<path d="M1755 1381 c-22 -10 -55 -34 -73 -55 l-32 -37 0 50 0 50 -190 0 -191
-1 3 -116 3 -117 48 1 c28 1 47 -3 48 -10 0 -6 1 -60 2 -121 l1 -110 -52 -3
-52 -3 0 -120 0 -119 240 0 240 0 0 120 0 120 -50 0 -50 0 0 106 c0 135 13
164 76 164 19 0 38 -8 50 -21 17 -19 19 -40 20 -248 1 -124 2 -229 3 -233 1
-5 85 -8 189 -8 l187 0 0 120 0 120 -51 0 -51 0 0 110 c-1 95 2 113 19 135 27
35 79 34 107 -1 20 -25 21 -39 21 -255 l0 -229 188 0 188 0 0 120 0 119 -50 3
-50 3 -2 150 c-1 133 -4 155 -24 198 -67 141 -244 181 -373 83 -20 -15 -39
-37 -43 -48 -5 -17 -10 -15 -42 23 -65 75 -170 100 -257 60z"/>
</g>
</svg>
